:SAMPLES-PER-SECOND 30
:FULLY-SPECIFIED
:DEGREES
268
root  62.0117 25.3548 -16.1146 -161.342 -14.6562 177.585
RightUpLeg  -60.1776 8.60414 -31.6933
RightLeg  70.3369 -0.405772 -1.11321
RightFoot  -15.8445 0.198608 1.80477
RightToes  -53.9622 -0.338481 -0.387028
Spine  18.3536 -4.29544 2.57603
Spine1  28.3369 -10.4814 4.45673
HEad  7.69396 -5.86518 12.8516
LeftShoulder1  0 -2.42657e-020 -4.95415e-022
LeftArm  5.53532 -47.8014 -105.615
LeftForeArm  65.6907 -16.7001 -2.96905
LeftHand  -0.00732333 -13.5547 -0.308487
RightShoulder  0 2.42657e-020 1.07489e-018
RightArm  -70.4249 43.1449 90.1178
RightForeArm  33.0721 10.7045 1.90578
RightHand  -0.414341 19.8605 -1.99699
LeftUpLeg  -38.2297 -3.39025 34.2532
LeftLeg  52.5013 2.622 2.98529
LeftFoot  -1.79844 -0.0589538 -3.75471
LeftToes  -58.6251 2.37847e-007 4.89147e-008
269
root  62.9151 25.0964 -16.4524 -158.924 -12.1805 177.097
RightUpLeg  -65.7052 8.06433 -31.3234
RightLeg  73.8749 0.24641 0.45962
RightFoot  -17.1584 0.156154 1.41264
RightToes  -53.8464 -0.337426 -0.389837
Spine  19.1102 -4.17392 4.41963
Spine1  28.6851 -10.7743 7.17541
HEad  5.06348 -3.95913 8.81087
LeftShoulder1  0 -2.42657e-020 -4.95415e-022
LeftArm  5.28695 -51.1774 -111.895
LeftForeArm  72.7253 -8.43674 -1.42454
LeftHand  0.88047 -13.3611 -7.88049
RightShoulder  0 2.42657e-020 1.07489e-018
RightArm  -75.3292 47.8913 82.9063
RightForeArm  35.4257 8.04869 1.42466
RightHand  -0.380244 20.0869 -1.77725
LeftUpLeg  -39.1698 -3.51878 34.716
LeftLeg  54.2437 5.35012 6.45898
LeftFoot  1.18628 0.0409627 -3.9552
LeftToes  -54.4513 2.37847e-007 4.89147e-008
270
root  63.5516 25.1186 -16.8542 -157.333 -10.5419 175.741
RightUpLeg  -68.1962 7.4976 -31.6447
RightLeg  75.4657 0.69109 1.84501
RightFoot  -18.5012 0.105359 1.02447
RightToes  -52.9973 -0.329716 -0.390614
Spine  19.7326 -3.94198 6.09268
Spine1  29.1426 -10.6304 9.78459
HEad  3.01415 -3.7639 5.27832
LeftShoulder1  0 -2.42657e-020 -4.95415e-022
LeftArm  7.93117 -52.0527 -116.787
LeftForeArm  73.9226 -3.15669 -0.486261
LeftHand  1.06342 -11.2019 -11.1886
RightShoulder  0 2.42657e-020 1.07489e-018
RightArm  -79.2394 50.6572 72.4219
RightForeArm  35.6859 6.33496 1.11897
RightHand  -0.392566 20.2525 -1.82831
LeftUpLeg  -40.8581 -5.88981 33.5232
LeftLeg  57.5794 8.24743 11.1186
LeftFoot  3.75789 0.115352 -3.51514
LeftToes  -41.2355 2.37847e-007 4.89147e-008
271
root  64.017 25.4616 -17.2976 -156.111 -8.01892 174.864
RightUpLeg  -69.8731 8.85123 -32.2563
RightLeg  75.1659 0.826491 2.21837
RightFoot  -18.7296 0.0771885 0.845621
RightToes  -51.9876 -0.320607 -0.38986
Spine  19.9204 -3.11684 7.11573
Spine1  29.3806 -9.011 11.2048
HEad  2.04318 -3.21738 1.7755
LeftShoulder1  0 -2.42657e-020 -4.95415e-022
LeftArm  7.23166 -49.5995 -117.563
LeftForeArm  69.4133 -3.69171 -0.592107
LeftHand  0.658439 -9.52209 -8.26909
RightShoulder  0 2.42657e-020 1.07489e-018
RightArm  -81.5701 50.8127 63.1221
RightForeArm  34.9054 7.02736 1.24277
RightHand  -0.386856 20.9717 -1.72045
LeftUpLeg  -42.0236 -6.08698 31.1309
LeftLeg  60.8869 8.45284 12.8408
LeftFoot  5.09926 0.135867 -3.05051
LeftToes  -28.6289 2.37847e-007 4.89147e-008
272
root  64.2523 26.0732 -17.7984 -155.264 -5.42552 174.4
RightUpLeg  -70.0922 10.1654 -32.5308
RightLeg  73.024 1.09259 2.68512
RightFoot  -18.1556 0.0292835 0.560848
RightToes  -51.5777 -0.317471 -0.38808
Spine  19.8524 -2.57273 7.63387
Spine1  29.5536 -7.85384 11.7617
HEad  2.0628 -1.23106 -1.26322
LeftShoulder1  0 -2.42657e-020 -4.95415e-022
LeftArm  2.57968 -46.5697 -115.537
LeftForeArm  67.8563 -6.30546 -1.05736
LeftHand  0.48737 -10.9352 -5.46178
RightShoulder  0 2.42657e-020 1.07489e-018
RightArm  -78.9037 49.5472 59.1302
RightForeArm  32.5183 11.7433 2.09594
RightHand  0.177073 23.6843 1.21481
LeftUpLeg  -43.0422 -5.45077 27.8251
LeftLeg  64.1608 5.91492 10.3022
LeftFoot  3.89533 0.113336 -3.33186
LeftToes  -28.2666 2.37847e-007 4.89147e-008
